<svg role="img" viewBox="0 0 24 24" xmlns="http://www.w3.org/2000/svg" id="Formspree--Streamline-Simple-Icons" height="24" width="24">
  <desc>
    Formspree Streamline Icon: https://streamlinehq.com
  </desc>
  <title>Formspree</title>
  <path d="M1.333 2a2 2 0 0 1 2 -2h17.334a2 2 0 0 1 2 2v2.857a2 2 0 0 1 -2 2H3.333a2 2 0 0 1 -2 -2zm0 8.571a2 2 0 0 1 2 -2h17.334a2 2 0 0 1 2 2v2.858a2 2 0 0 1 -2 2H3.333a2 2 0 0 1 -2 -2zm2 6.572a2 2 0 0 0 -2 2V22a2 2 0 0 0 2 2h8a2 2 0 0 0 2 -2v-2.857a2 2 0 0 0 -2 -2z" fill="#000000" stroke-width="1"></path>
</svg>